# Blender v3.1.2 OBJ File: 'passage.blend'
# www.blender.org
mtllib passage.mtl
o Cube
v 2.248392 0.364088 -0.295490
v 2.248392 -0.364088 -0.295490
v 2.248392 0.364088 0.295490
v 2.248392 -0.364088 0.295490
v -2.269125 0.364088 -0.295490
v -2.269125 -0.364088 -0.295490
v -2.269125 0.364088 0.295490
v -2.269125 -0.364088 0.295490
v 2.181517 -0.238973 -0.370081
v -2.202250 -0.238973 -0.370081
v 2.181517 0.232603 -0.370081
v -2.202250 -0.238973 0.370081
v -2.202250 0.232603 0.370081
v 2.181517 0.232603 0.370081
v 2.181517 -0.238973 0.370081
v -2.202250 0.232603 -0.370081
v -2.349440 -0.447330 -0.418114
v -2.349440 -0.447330 0.418114
v -2.349440 0.447330 0.418114
v -2.349440 0.447330 -0.418114
v 2.326932 0.447330 -0.418114
v 2.326932 -0.447330 -0.418114
v 2.326932 0.447330 0.418114
v 2.326932 -0.447330 0.418114
v -2.499256 -0.447330 -0.418114
v -2.499256 -0.447330 0.418114
v -2.499256 0.447330 0.418114
v -2.499256 0.447330 -0.418114
v 2.476747 0.447330 -0.418114
v 2.476747 -0.447330 -0.418114
v 2.476747 0.447330 0.418114
v 2.476747 -0.447330 0.418114
v 0.273234 -0.424305 -0.370081
v 0.273234 0.424305 0.370081
v 0.273234 -0.424305 0.370081
v 0.273234 0.424305 -0.370081
v 0.273234 -0.304319 -0.444458
v 0.273234 0.297949 0.444458
v 0.273234 -0.304319 0.444458
v 0.273234 0.297949 -0.444458
v 1.260813 -0.424305 0.370081
v 1.260813 0.424305 -0.370081
v 1.227376 -0.304319 0.444458
v 1.227376 0.297949 -0.444458
v 1.260813 -0.424305 -0.370081
v 1.260813 0.424305 0.370081
v 1.227376 -0.304319 -0.444458
v 1.227376 0.297949 0.444458
v -1.281546 -0.424305 -0.370081
v -1.281546 0.424305 0.370081
v -1.248109 -0.304319 -0.444458
v -1.248109 0.297949 0.444458
v -1.281546 -0.424305 0.370081
v -1.281546 0.424305 -0.370081
v -1.248109 -0.304319 0.444458
v -1.248109 0.297949 -0.444458
v 0.767024 -0.364088 -0.295490
v 0.767024 0.364088 0.295490
v 0.750305 -0.238973 -0.370081
v 0.750305 0.232603 0.370081
v 0.767024 -0.364088 0.295490
v 0.767024 0.364088 -0.295490
v 0.750305 -0.238973 0.370081
v 0.750305 0.232603 -0.370081
v -0.787757 -0.364088 0.295490
v -0.787757 0.364088 -0.295490
v -0.771038 -0.238973 0.370081
v -0.771038 0.232603 -0.370081
v -0.787757 -0.364088 -0.295490
v -0.787757 0.364088 0.295490
v -0.771038 -0.238973 -0.370081
v -0.771038 0.232603 0.370081
v 1.754603 -0.424305 0.370081
v 1.754603 0.424305 -0.370081
v 1.704447 -0.304319 0.444458
v 1.704447 0.297949 -0.444458
v 1.754603 -0.424305 -0.370081
v 1.754603 0.424305 0.370081
v 1.704447 -0.304319 -0.444458
v 1.704447 0.297949 0.444458
v -1.775336 -0.424305 -0.370081
v -1.775336 0.424305 0.370081
v -1.725180 -0.304319 -0.444458
v -1.725180 0.297949 0.444458
v -1.775336 -0.424305 0.370081
v -1.775336 0.424305 -0.370081
v -1.725180 -0.304319 0.444458
v -1.725180 0.297949 -0.444458
v -0.284368 -0.424305 0.370081
v -0.284368 0.424305 -0.370081
v -0.276009 -0.304319 0.444458
v -0.276009 0.297949 -0.444458
v -0.284368 -0.424305 -0.370081
v -0.284368 0.424305 0.370081
v -0.276009 -0.304319 -0.444458
v -0.276009 0.297949 0.444458
v -1.718538 0.489572 0.284944
v -2.098732 0.443208 0.227513
v 2.098699 0.442354 -0.238649
v 2.098699 0.442354 0.238649
v -2.098732 0.443208 -0.227513
v 1.699895 0.490987 -0.298891
v 0.781123 0.447072 0.194858
v 0.213818 0.491291 0.302172
v -0.241466 0.491291 -0.302172
v 0.213818 0.491291 -0.302172
v 0.781123 0.447072 -0.194858
v 1.301092 0.490987 -0.298891
v 1.699895 0.490987 0.298891
v 1.301092 0.490987 0.298891
v -0.791612 0.447779 0.185765
v -1.338344 0.489572 0.284944
v -1.718538 0.489572 -0.284944
v -1.338344 0.489572 -0.284944
v -0.791612 0.447779 -0.185765
v -0.241466 0.491291 0.302172
v -2.155885 -0.445456 -0.255829
v -2.155885 -0.445456 0.244816
v -1.737574 -0.496468 -0.319019
v 1.713703 -0.496717 0.309175
v 2.133574 -0.445515 0.245750
v 2.133574 -0.445515 -0.256763
v 0.783891 -0.449020 -0.223631
v 0.232445 -0.497252 -0.326787
v -0.251630 -0.497252 0.315774
v 0.232445 -0.497252 0.315774
v 0.783891 -0.449020 0.212618
v 1.293831 -0.496717 0.309175
v 1.713703 -0.496717 -0.320188
v 1.293831 -0.496717 -0.320188
v -0.786928 -0.448971 -0.222821
v -1.319262 -0.496468 -0.319019
v -1.737574 -0.496468 0.308006
v -1.319262 -0.496468 0.308006
v -0.786928 -0.448971 0.211808
v -0.251630 -0.497252 -0.326787
vt 0.907062 0.965477
vt 0.938312 0.965477
vt 0.938312 0.965477
vt 0.613730 0.639099
vt 0.863730 0.639099
vt 0.613730 0.639099
vt 0.128692 0.433425
vt 0.128692 0.402914
vt 0.128692 0.402914
vt 0.250812 0.715477
vt 0.219562 0.715477
vt 0.219562 0.715477
vt 0.159203 0.433425
vt 0.189715 0.433425
vt 0.189715 0.433425
vt 0.469562 0.715477
vt 0.719562 0.715477
vt 0.719562 0.715477
vt 0.175995 0.314627
vt 0.061163 0.328981
vt 0.061163 0.314627
vt 0.175995 0.179909
vt 0.061163 0.194263
vt 0.061163 0.179909
vt 0.613730 0.389099
vt 0.863730 0.389099
vt 0.863730 0.389099
vt 0.250812 0.715477
vt 0.750812 0.715477
vt 0.750812 0.715477
vt 0.469562 0.965477
vt 0.438312 0.965477
vt 0.438312 0.965477
vt 0.969562 0.965477
vt 0.938312 0.965477
vt 0.719562 0.965477
vt 0.469562 0.965477
vt 0.220226 0.402914
vt 0.220226 0.433425
vt 0.220226 0.433425
vt 0.220226 0.402914
vt 0.220226 0.433425
vt 0.176798 0.393592
vt 0.207310 0.393592
vt 0.207310 0.393592
vt 0.207310 0.363081
vt 0.176798 0.363081
vt 0.176798 0.363081
vt 0.159203 0.433425
vt 0.189715 0.433425
vt 0.189715 0.402914
vt 0.159203 0.402914
vt 0.159203 0.402914
vt 0.189715 0.402914
vt 0.207310 0.363081
vt 0.176798 0.393592
vt 0.176798 0.363081
vt 0.207310 0.363081
vt 0.176798 0.393592
vt 0.207310 0.393592
vt 0.128692 0.433425
vt 0.128692 0.402914
vt 0.189715 0.402914
vt 0.159203 0.433425
vt 0.159203 0.402914
vt 0.813312 0.965477
vt 0.844562 0.965477
vt 0.813312 0.965477
vt 0.344562 0.965477
vt 0.328937 0.965477
vt 0.328937 0.965477
vt 0.844562 0.715477
vt 0.860187 0.715477
vt 0.860187 0.715477
vt 0.375812 0.715477
vt 0.344562 0.715477
vt 0.375812 0.715477
vt 0.175995 0.129670
vt 0.061163 0.136847
vt 0.061163 0.129670
vt 0.175995 0.257211
vt 0.061163 0.271565
vt 0.061163 0.257211
vt 0.344562 0.715477
vt 0.344562 0.715477
vt 0.938312 0.715477
vt 0.907062 0.715477
vt 0.907062 0.715477
vt 0.782062 0.715477
vt 0.750812 0.715477
vt 0.175995 0.228503
vt 0.061163 0.242857
vt 0.061163 0.228503
vt 0.407062 0.715477
vt 0.438312 0.715477
vt 0.438312 0.715477
vt 0.782062 0.965477
vt 0.750812 0.965477
vt 0.750812 0.965477
vt 0.375812 0.965477
vt 0.407062 0.965477
vt 0.375812 0.965477
vt 0.813312 0.715477
vt 0.782062 0.715477
vt 0.813312 0.715477
vt 0.175995 0.151201
vt 0.061163 0.165555
vt 0.061163 0.151201
vt 0.469562 0.965477
vt 0.282062 0.715477
vt 0.250812 0.715477
vt 0.175995 0.093785
vt 0.061163 0.108139
vt 0.061163 0.093785
vt 0.938312 0.715477
vt 0.282062 0.965477
vt 0.250812 0.965477
vt 0.250812 0.965477
vt 0.875812 0.965477
vt 0.907062 0.965477
vt 0.875812 0.965477
vt 0.313312 0.715477
vt 0.282062 0.715477
vt 0.313312 0.715477
vt 0.175995 0.285919
vt 0.061163 0.300273
vt 0.061163 0.285919
vt 0.750812 0.965477
vt 0.782062 0.965477
vt 0.219562 0.965477
vt 0.219562 0.965477
vt 0.175995 0.136847
vt 0.844562 0.715477
vt 0.344562 0.965477
vt 0.719562 0.965477
vt 0.719562 0.715477
vt 0.719562 0.965477
vt 0.175995 0.242857
vt 0.407062 0.715477
vt 0.782062 0.965477
vt 0.860187 0.965477
vt 0.844562 0.965477
vt 0.860187 0.965477
vt 0.175995 0.278742
vt 0.061163 0.278742
vt 0.328937 0.715477
vt 0.328937 0.715477
vt 0.860187 0.965477
vt 0.250812 0.965477
vt 0.282062 0.965477
vt 0.175995 0.108139
vt 0.061163 0.122493
vt 0.875812 0.715477
vt 0.907062 0.715477
vt 0.313312 0.965477
vt 0.282062 0.965477
vt 0.469562 0.715477
vt 0.175995 0.214149
vt 0.061163 0.214149
vt 0.875812 0.715477
vt 0.407062 0.965477
vt 0.175995 0.165555
vt 0.438312 0.965477
vt 0.219562 0.965477
vt 0.969562 0.715477
vt 0.969562 0.715477
vt 0.175995 0.079431
vt 0.061163 0.079431
vt 0.438312 0.715477
vt 0.407062 0.715477
vt 0.175995 0.300273
vt 0.969562 0.965477
vt 0.844562 0.965477
vt 0.175995 0.271565
vt 0.969562 0.715477
vt 0.938312 0.715477
vt 0.328937 0.715477
vt 0.175995 0.122493
vt 0.875812 0.715477
vt 0.313312 0.965477
vt 0.217109 0.083159
vt 0.292599 0.092768
vt 0.217128 0.092923
vt 0.217184 0.122214
vt 0.292674 0.131823
vt 0.217203 0.131978
vt 0.217222 0.141741
vt 0.292711 0.151350
vt 0.217240 0.151505
vt 0.217147 0.102686
vt 0.292636 0.112295
vt 0.217165 0.112450
vt 0.292692 0.141587
vt 0.292646 0.117177
vt 0.217175 0.117332
vt 0.292730 0.161114
vt 0.217259 0.161269
vt 0.292618 0.102532
vt 0.292655 0.122059
vt 0.844562 0.715477
vt 0.813312 0.715477
vt 0.860187 0.715477
vt 0.782062 0.715477
vt 0.875812 0.965477
vt 0.907062 0.965477
vt 0.813312 0.965477
vt 0.217408 0.239378
vt 0.292898 0.248987
vt 0.217427 0.249142
vt 0.217483 0.278433
vt 0.292963 0.283160
vt 0.217492 0.283315
vt 0.217464 0.268669
vt 0.292916 0.258751
vt 0.292935 0.268515
vt 0.217520 0.297961
vt 0.293010 0.307570
vt 0.217539 0.307724
vt 0.292954 0.278278
vt 0.217502 0.288197
vt 0.292991 0.297806
vt 0.217446 0.258906
vt 0.293029 0.317333
vt 0.217558 0.317488
vt 0.292972 0.288042
vt 0.344562 0.965477
vt 0.375812 0.965477
vt 0.328937 0.965477
vt 0.407062 0.965477
vt 0.313312 0.715477
vt 0.282062 0.715477
vt 0.469562 0.715477
vt 0.375812 0.715477
vt 0.313312 0.965477
vt 0.863730 0.639099
vt 0.175995 0.328981
vt 0.175995 0.194263
vt 0.613730 0.389099
vt 0.219562 0.715477
vt 0.969562 0.965477
vt 0.220226 0.402914
vt 0.128692 0.433425
vt 0.292580 0.083004
vt 0.292879 0.239224
vn 0.0000 0.7936 0.6084
vn -0.7446 0.0000 -0.6675
vn 0.7196 -0.6943 0.0000
vn -0.1905 -0.6315 -0.7516
vn -0.8421 0.0000 0.5393
vn 0.7446 0.0000 -0.6675
vn -0.1540 0.0000 0.9881
vn 0.1540 0.0000 -0.9881
vn -0.7446 0.0000 0.6675
vn -0.1872 -0.4598 -0.8680
vn 0.1865 0.4424 -0.8772
vn 0.1872 -0.4598 0.8680
vn -0.1865 0.4424 0.8772
vn 0.7446 0.0000 0.6675
vn 0.0000 1.0000 0.0000
vn 0.7196 0.6943 0.0000
vn 0.8365 0.0000 -0.5479
vn 0.8365 0.0000 0.5479
vn 0.0000 0.0000 1.0000
vn -0.8421 0.0000 -0.5393
vn -0.7274 -0.6863 0.0000
vn -0.7274 0.6863 0.0000
vn -1.0000 0.0000 0.0000
vn 0.0000 0.0000 -1.0000
vn 0.0000 -1.0000 0.0000
vn 1.0000 0.0000 0.0000
vn 0.1982 0.4645 0.8631
vn 0.0000 -0.5269 0.8499
vn 0.0000 0.5073 -0.8618
vn 0.1991 -0.4821 -0.8532
vn 0.1540 0.0000 0.9881
vn 0.1903 -0.5776 -0.7938
vn 0.0000 0.7936 -0.6084
vn 0.0000 0.7298 -0.6836
vn 0.0000 -0.5269 -0.8499
vn 0.0000 0.5073 0.8618
vn -0.2007 -0.5213 0.8294
vn -0.2000 0.5026 -0.8411
vn -0.1540 0.0000 -0.9881
vn 0.1896 -0.6925 0.6960
vn 0.0000 -0.5776 -0.8163
vn 0.2000 0.5026 0.8411
vn 0.2007 -0.5213 -0.8294
vn 0.0000 0.7298 0.6836
vn -0.5835 -0.8121 0.0000
vn 0.1886 0.4982 -0.8463
vn 0.1892 -0.5174 0.8346
vn 0.4633 0.8862 0.0000
vn -0.1900 -0.5550 -0.8099
vn -0.1896 0.5349 0.8234
vn 0.0000 0.7119 0.7023
vn -0.1486 0.0000 0.9889
vn -0.1854 -0.5084 -0.8409
vn -0.1848 0.4894 0.8522
vn 0.0000 -0.6521 0.7581
vn 0.1896 0.5349 -0.8234
vn 0.1900 -0.5550 0.8099
vn 0.1949 0.4071 0.8923
vn 0.1959 -0.4228 -0.8848
vn 0.1679 0.7867 -0.5941
vn 0.0000 -0.6437 0.7653
vn -0.1959 -0.4228 0.8848
vn -0.1949 0.4071 -0.8923
vn 0.0000 -0.5674 -0.8235
vn -0.1804 0.8350 0.5198
vn -0.1804 0.8350 -0.5198
vn 0.0000 -0.5104 -0.8599
vn -0.1486 0.0000 -0.9889
vn -0.1913 0.4658 -0.8640
vn -0.1921 -0.4835 0.8540
vn -0.1211 0.9926 0.0000
vn 0.0777 0.9970 0.0000
vn 0.0762 0.9971 0.0000
vn -0.0842 0.9965 0.0000
vn -0.0788 0.9969 0.0000
vn 0.1211 0.9926 0.0000
vn -0.4211 0.9070 0.0000
vn 0.1857 0.7759 0.6029
vn 0.1794 0.7465 -0.6407
vn 0.1851 0.7842 -0.5923
vn -0.1836 0.7553 -0.6291
vn -0.1863 0.7674 -0.6135
vn -0.1884 0.7777 0.5998
vn 0.0000 0.7119 -0.7023
vn 0.1804 0.8350 0.5198
vn 0.1851 0.7842 0.5923
vn -0.1870 0.7706 0.6093
vn 0.1211 -0.9926 0.0000
vn -0.0931 -0.9957 0.0000
vn 0.0871 -0.9962 0.0000
vn 0.0889 -0.9960 0.0000
vn -0.1211 -0.9926 0.0000
vn -0.0898 -0.9960 0.0000
vn 0.1931 -0.6653 0.7212
vn -0.1870 -0.6392 0.7459
vn -0.1899 -0.6812 0.7070
vn -0.2019 -0.6381 -0.7430
vn 0.0000 -0.5972 0.8021
vn 0.1905 -0.6314 -0.7516
vn 0.1906 -0.6277 -0.7548
vn 0.5785 -0.8157 0.0000
vn -0.1992 -0.6557 -0.7282
vn -0.1895 -0.6954 0.6932
vn 0.1880 -0.6886 0.7003
vn -0.1959 -0.4228 -0.8848
vn 0.1949 0.4071 -0.8923
vn 0.1959 -0.4228 0.8848
vn -0.1949 0.4071 0.8923
vn 0.1886 0.4982 0.8463
vn 0.1892 -0.5174 -0.8346
vn 0.1969 -0.6102 -0.7674
vn -0.1900 -0.5550 0.8099
vn -0.1896 0.5349 -0.8234
vn 0.1896 0.5349 0.8234
vn 0.1900 -0.5550 -0.8099
vn 0.1982 0.4645 -0.8631
vn 0.1991 -0.4821 0.8532
vn -0.2007 -0.5213 -0.8294
vn -0.2000 0.5026 0.8411
vn -0.1921 -0.4835 -0.8540
vn -0.1913 0.4658 0.8640
vn 0.2000 0.5026 -0.8411
vn 0.2007 -0.5213 0.8294
vn 0.1865 0.4424 0.8772
vn 0.1872 -0.4598 -0.8680
vn 0.1804 0.8350 -0.5198
vn -0.1872 -0.4598 0.8680
vn -0.1865 0.4424 -0.8772
vn -0.1848 0.4894 -0.8522
vn -0.1854 -0.5084 0.8409
vn 0.1794 0.7465 0.6407
vn 0.1857 0.7759 -0.6029
vn -0.1884 0.7777 -0.5998
vn -0.1870 0.7706 -0.6093
vn -0.1836 0.7553 0.6291
vn 0.1679 0.7867 0.5941
vn -0.1863 0.7674 0.6135
vn 0.1904 -0.6525 0.7335
vn -0.1976 -0.6892 0.6971
vn -0.1951 -0.7045 0.6823
vn -0.1866 -0.5620 -0.8058
vn 0.1917 -0.6372 -0.7465
vn -0.1906 -0.6144 -0.7656
vn 0.1895 -0.6954 0.6932
usemtl Material
s off
f 50/1/1 97/2/1 82/3/1
f 6/4/2 16/5/2 10/6/2
f 8/7/3 17/8/3 6/9/3
f 81/10/4 117/11/4 6/12/4
f 4/13/5 23/14/5 3/15/5
f 2/16/6 11/17/6 1/18/6
f 84/19/7 12/20/7 87/21/7
f 76/22/8 9/23/8 79/24/8
f 8/25/9 13/26/9 7/27/9
f 6/12/10 83/28/10 81/10/10
f 1/18/11 76/29/11 74/30/11
f 4/31/12 75/32/12 73/33/12
f 7/34/13 84/35/13 82/3/13
f 4/31/14 14/36/14 15/37/14
f 20/38/15 27/39/15 19/40/15
f 5/41/16 19/40/16 7/42/16
f 6/43/17 20/44/17 5/45/17
f 7/46/18 18/47/18 8/48/18
f 24/49/19 31/50/19 23/14/19
f 1/51/20 22/52/20 2/53/20
f 2/53/21 24/49/21 4/13/21
f 3/15/22 21/54/22 1/51/22
f 27/55/23 25/56/23 26/57/23
f 19/58/19 26/57/19 18/47/19
f 17/59/24 28/60/24 20/44/24
f 18/61/25 25/62/25 17/8/25
f 29/63/26 32/64/26 30/65/26
f 23/14/15 29/63/15 21/54/15
f 21/54/24 30/65/24 22/52/24
f 22/52/25 32/64/25 24/49/25
f 58/66/27 38/67/27 60/68/27
f 35/69/28 91/70/28 89/71/28
f 36/72/29 92/73/29 90/74/29
f 57/75/30 37/76/30 59/77/30
f 92/78/24 37/79/24 95/80/24
f 60/81/31 39/82/31 63/83/31
f 57/75/32 124/84/32 33/85/32
f 86/86/33 114/87/33 54/88/33
f 42/89/34 102/90/34 74/30/34
f 80/91/19 43/92/19 75/93/19
f 45/94/35 79/95/35 77/96/35
f 46/97/36 80/98/36 78/99/36
f 61/100/37 43/101/37 63/102/37
f 62/103/38 44/104/38 64/105/38
f 64/106/39 47/107/39 59/108/39
f 73/33/40 121/109/40 4/31/40
f 49/110/41 119/111/41 81/10/41
f 88/112/24 51/113/24 83/114/24
f 54/88/29 88/115/29 86/86/29
f 53/116/28 87/117/28 85/118/28
f 70/119/42 52/120/42 72/121/42
f 69/122/43 51/123/43 71/124/43
f 72/125/31 55/126/31 67/127/31
f 46/97/44 109/128/44 110/129/44
f 6/12/45 118/130/45 8/131/45
f 40/132/8 59/108/8 37/79/8
f 62/103/46 40/133/46 36/72/46
f 61/100/47 39/134/47 35/69/47
f 3/135/48 99/136/48 100/137/48
f 48/138/7 63/83/7 43/92/7
f 57/75/49 47/139/49 45/94/49
f 58/66/50 48/140/50 46/97/50
f 94/141/51 104/142/51 116/143/51
f 96/144/52 67/127/52 91/145/52
f 69/122/53 95/146/53 93/147/53
f 70/119/54 96/148/54 94/141/54
f 53/116/55 133/149/55 134/150/55
f 56/151/8 71/152/8 51/113/8
f 66/153/56 56/154/56 54/88/56
f 65/155/57 55/156/57 53/116/57
f 3/135/58 80/98/58 14/36/58
f 2/16/59 79/95/59 9/157/59
f 14/158/31 75/93/31 15/159/31
f 66/153/60 114/87/60 115/160/60
f 41/161/28 75/32/28 43/101/28
f 42/89/29 76/29/29 44/104/29
f 44/162/24 79/24/24 47/107/24
f 41/161/61 120/163/61 73/33/61
f 8/131/62 87/117/62 12/164/62
f 5/165/63 88/115/63 16/166/63
f 16/167/39 83/114/39 10/168/39
f 45/94/64 129/169/64 130/170/64
f 50/1/36 84/35/36 52/120/36
f 49/110/35 83/28/35 51/123/35
f 52/171/19 87/21/19 55/126/19
f 82/3/65 98/172/65 7/34/65
f 34/173/36 96/148/36 38/67/36
f 33/85/35 95/146/35 37/76/35
f 38/174/19 91/145/19 39/82/19
f 86/86/66 101/175/66 113/176/66
f 93/147/67 124/84/67 136/177/67
f 68/178/68 95/80/68 71/152/68
f 66/153/69 92/73/69 68/179/69
f 65/155/70 91/70/70 67/180/70
f 101/181/71 97/182/71 113/183/71
f 106/184/72 103/185/72 107/186/72
f 108/187/15 109/188/15 102/189/15
f 114/190/73 111/191/73 115/192/73
f 108/187/74 103/185/74 110/193/74
f 115/192/75 116/194/75 105/195/75
f 102/189/76 100/196/76 99/197/76
f 113/183/15 112/198/15 114/190/15
f 105/195/15 104/199/15 106/184/15
f 7/34/77 101/175/77 5/165/77
f 58/66/78 104/142/78 34/173/78
f 62/103/79 106/200/79 107/201/79
f 74/30/80 99/136/80 1/18/80
f 66/153/81 105/202/81 90/74/81
f 62/103/82 108/203/82 42/89/82
f 70/119/83 116/143/83 111/204/83
f 90/74/84 106/200/84 36/72/84
f 70/119/85 112/205/85 50/1/85
f 78/99/86 100/137/86 109/128/86
f 58/66/87 110/129/87 103/206/87
f 122/207/88 120/208/88 129/209/88
f 124/210/25 125/211/25 136/212/25
f 123/213/89 128/214/89 127/215/89
f 132/216/25 133/217/25 119/218/25
f 123/213/90 126/219/90 124/210/90
f 131/220/91 134/221/91 132/216/91
f 129/209/25 128/214/25 130/222/25
f 119/218/92 118/223/92 117/224/92
f 131/220/93 125/211/93 135/225/93
f 61/100/94 126/226/94 127/227/94
f 65/155/95 125/228/95 89/71/95
f 61/100/96 128/229/96 41/161/96
f 69/122/97 136/177/97 131/230/97
f 89/71/98 126/226/98 35/69/98
f 69/122/99 132/231/99 49/110/99
f 77/96/100 122/232/100 129/169/100
f 2/16/101 121/109/101 122/232/101
f 57/75/102 130/170/102 123/233/102
f 85/118/103 118/130/103 133/149/103
f 65/155/104 134/150/104 135/234/104
f 50/1/1 112/205/1 97/2/1
f 6/4/2 5/235/2 16/5/2
f 8/7/3 18/61/3 17/8/3
f 81/10/4 119/111/4 117/11/4
f 4/13/5 24/49/5 23/14/5
f 2/16/6 9/157/6 11/17/6
f 84/19/7 13/236/7 12/20/7
f 76/22/8 11/237/8 9/23/8
f 8/25/9 12/238/9 13/26/9
f 6/12/105 10/239/105 83/28/105
f 1/18/106 11/17/106 76/29/106
f 4/31/107 15/37/107 75/32/107
f 7/34/108 13/240/108 84/35/108
f 4/31/14 3/135/14 14/36/14
f 20/38/15 28/241/15 27/39/15
f 5/41/16 20/38/16 19/40/16
f 6/43/17 17/59/17 20/44/17
f 7/46/18 19/58/18 18/47/18
f 24/49/19 32/64/19 31/50/19
f 1/51/20 21/54/20 22/52/20
f 2/53/21 22/52/21 24/49/21
f 3/15/22 23/14/22 21/54/22
f 27/55/23 28/60/23 25/56/23
f 19/58/19 27/55/19 26/57/19
f 17/59/24 25/56/24 28/60/24
f 18/61/25 26/242/25 25/62/25
f 29/63/26 31/50/26 32/64/26
f 23/14/15 31/50/15 29/63/15
f 21/54/24 29/63/24 30/65/24
f 22/52/25 30/65/25 32/64/25
f 58/66/109 34/173/109 38/67/109
f 35/69/28 39/134/28 91/70/28
f 36/72/29 40/133/29 92/73/29
f 57/75/110 33/85/110 37/76/110
f 92/78/24 40/132/24 37/79/24
f 60/81/31 38/174/31 39/82/31
f 57/75/111 123/233/111 124/84/111
f 86/86/33 113/176/33 114/87/33
f 42/89/34 108/203/34 102/90/34
f 80/91/19 48/138/19 43/92/19
f 45/94/35 47/139/35 79/95/35
f 46/97/36 48/140/36 80/98/36
f 61/100/112 41/161/112 43/101/112
f 62/103/113 42/89/113 44/104/113
f 64/106/39 44/162/39 47/107/39
f 73/33/40 120/163/40 121/109/40
f 49/110/41 132/231/41 119/111/41
f 88/112/24 56/151/24 51/113/24
f 54/88/29 56/154/29 88/115/29
f 53/116/28 55/156/28 87/117/28
f 70/119/114 50/1/114 52/120/114
f 69/122/115 49/110/115 51/123/115
f 72/125/31 52/171/31 55/126/31
f 46/97/44 78/99/44 109/128/44
f 6/12/45 117/11/45 118/130/45
f 40/132/8 64/106/8 59/108/8
f 62/103/116 64/105/116 40/133/116
f 61/100/117 63/102/117 39/134/117
f 3/135/48 1/18/48 99/136/48
f 48/138/7 60/81/7 63/83/7
f 57/75/118 59/77/118 47/139/118
f 58/66/119 60/68/119 48/140/119
f 94/141/51 34/173/51 104/142/51
f 96/144/52 72/125/52 67/127/52
f 69/122/120 71/124/120 95/146/120
f 70/119/121 72/121/121 96/148/121
f 53/116/55 85/118/55 133/149/55
f 56/151/8 68/178/8 71/152/8
f 66/153/122 68/179/122 56/154/122
f 65/155/123 67/180/123 55/156/123
f 3/135/124 78/99/124 80/98/124
f 2/16/125 77/96/125 79/95/125
f 14/158/31 80/91/31 75/93/31
f 66/153/126 54/88/126 114/87/126
f 41/161/28 73/33/28 75/32/28
f 42/89/29 74/30/29 76/29/29
f 44/162/24 76/22/24 79/24/24
f 41/161/61 128/229/61 120/163/61
f 8/131/127 85/118/127 87/117/127
f 5/165/128 86/86/128 88/115/128
f 16/167/39 88/112/39 83/114/39
f 45/94/64 77/96/64 129/169/64
f 50/1/36 82/3/36 84/35/36
f 49/110/35 81/10/35 83/28/35
f 52/171/19 84/19/19 87/21/19
f 82/3/65 97/2/65 98/172/65
f 34/173/36 94/141/36 96/148/36
f 33/85/35 93/147/35 95/146/35
f 38/174/19 96/144/19 91/145/19
f 86/86/66 5/165/66 101/175/66
f 93/147/67 33/85/67 124/84/67
f 68/178/68 92/78/68 95/80/68
f 66/153/129 90/74/129 92/73/129
f 65/155/130 89/71/130 91/70/130
f 101/181/71 98/243/71 97/182/71
f 106/184/72 104/199/72 103/185/72
f 108/187/15 110/193/15 109/188/15
f 114/190/73 112/198/73 111/191/73
f 108/187/74 107/186/74 103/185/74
f 115/192/75 111/191/75 116/194/75
f 102/189/76 109/188/76 100/196/76
f 113/183/15 97/182/15 112/198/15
f 105/195/15 116/194/15 104/199/15
f 7/34/77 98/172/77 101/175/77
f 58/66/131 103/206/131 104/142/131
f 62/103/132 36/72/132 106/200/132
f 74/30/80 102/90/80 99/136/80
f 66/153/133 115/160/133 105/202/133
f 62/103/134 107/201/134 108/203/134
f 70/119/135 94/141/135 116/143/135
f 90/74/84 105/202/84 106/200/84
f 70/119/136 111/204/136 112/205/136
f 78/99/86 3/135/86 100/137/86
f 58/66/137 46/97/137 110/129/137
f 122/207/88 121/244/88 120/208/88
f 124/210/25 126/219/25 125/211/25
f 123/213/89 130/222/89 128/214/89
f 132/216/25 134/221/25 133/217/25
f 123/213/90 127/215/90 126/219/90
f 131/220/91 135/225/91 134/221/91
f 129/209/25 120/208/25 128/214/25
f 119/218/92 133/217/92 118/223/92
f 131/220/93 136/212/93 125/211/93
f 61/100/138 35/69/138 126/226/138
f 65/155/139 135/234/139 125/228/139
f 61/100/140 127/227/140 128/229/140
f 69/122/141 93/147/141 136/177/141
f 89/71/98 125/228/98 126/226/98
f 69/122/142 131/230/142 132/231/142
f 77/96/100 2/16/100 122/232/100
f 2/16/101 4/31/101 121/109/101
f 57/75/143 45/94/143 130/170/143
f 85/118/103 8/131/103 118/130/103
f 65/155/144 53/116/144 134/150/144
