# Blender v3.1.2 OBJ File: 'controller.blend'
# www.blender.org
mtllib controller.mtl
o 立方体
v -0.060006 -0.445296 -0.129126
v -0.222800 -0.557991 -0.097724
v -0.222800 0.557991 -0.097724
v -0.060006 0.445296 -0.129126
v -0.222800 -0.557991 0.063382
v -0.222800 0.557991 0.063382
v 1.807917 -0.445296 -0.129126
v 1.970711 -0.557991 -0.097724
v 1.807917 0.445296 -0.129126
v 1.970711 0.557991 -0.097724
v 1.970711 -0.557991 0.063382
v 1.970711 0.557991 0.063382
v 0.873956 -0.557991 0.063382
v 0.873956 0.557991 0.063382
v 0.873956 -0.445296 -0.129126
v 0.873956 -0.557991 -0.097724
v 0.873956 0.557991 -0.097724
v 0.873956 0.445296 -0.129126
v 1.373956 0.557991 0.063382
v 1.381687 -0.445296 -0.129126
v 1.373956 -0.557991 -0.097724
v 1.373956 -0.557991 0.063382
v 1.373956 0.557991 -0.097724
v 1.381687 0.445296 -0.129126
v 0.373956 -0.557991 0.063382
v 0.373956 0.557991 -0.097724
v 0.366225 0.445296 -0.129126
v 0.373956 0.557991 0.063382
v 0.373956 -0.557991 -0.097724
v 0.366225 -0.445296 -0.129126
v -0.126044 0.643575 -0.097724
v 0.022388 0.488825 -0.129126
v -0.126044 0.643575 0.063382
v 1.472843 0.643575 0.063382
v 1.873956 0.643575 0.063382
v 1.873956 0.643575 -0.097724
v 1.725524 0.488825 -0.129126
v 0.275069 0.643575 -0.097724
v 0.265809 0.488825 -0.129126
v 1.472843 0.643575 -0.097724
v 1.482103 0.488825 -0.129126
v 0.275069 0.643575 0.063382
v -0.126044 -0.650248 0.063382
v -0.126044 -0.650248 -0.097724
v 0.022388 -0.486316 -0.129126
v 0.275069 -0.650248 0.063382
v 1.873956 -0.650248 -0.097724
v 1.725524 -0.486316 -0.129126
v 1.873956 -0.650248 0.063382
v 1.482103 -0.486316 -0.129126
v 1.472843 -0.650248 -0.097724
v 1.472843 -0.650248 0.063382
v 0.275069 -0.650248 -0.097724
v 0.265809 -0.486316 -0.129126
v -0.116159 0.445296 -0.097724
v -0.028812 0.513595 -0.097724
v 0.333300 -0.518920 -0.097724
v 0.333300 0.513595 -0.097724
v -0.116159 -0.445296 -0.097724
v -0.028812 -0.518920 -0.097724
v 1.414611 -0.518920 -0.097724
v 1.414611 0.513595 -0.097724
v 1.325339 0.471137 -0.097724
v 1.325339 -0.471137 -0.097724
v 0.873956 -0.471137 -0.097724
v 0.873956 0.471137 -0.097724
v 1.776723 0.513595 -0.097724
v 1.864070 0.445296 -0.097724
v 1.864070 -0.445296 -0.097724
v 1.776723 -0.518920 -0.097724
v 0.422572 0.471137 -0.097724
v 0.422572 -0.471137 -0.097724
v -0.222800 0.000000 0.063382
v 1.970711 0.000000 0.063382
v 0.373956 0.000000 0.063382
v 1.373956 0.000000 0.063382
v -0.222800 0.000000 -0.097724
v 1.970711 0.000000 -0.097724
v -0.222800 0.278995 0.063382
v 1.970711 0.278995 0.063382
v 0.873956 0.487156 0.063382
v 0.373956 0.278995 0.063382
v -0.222800 0.278995 -0.097724
v 1.970711 0.278995 -0.097724
v 1.373956 0.278995 0.063382
v 1.373956 -0.278995 0.063382
v -0.222800 -0.278995 0.063382
v 1.970711 -0.278995 0.063382
v 0.873956 -0.487156 0.063382
v 0.373956 -0.278995 0.063382
v -0.222800 -0.278995 -0.097724
v 1.970711 -0.278995 -0.097724
v 0.623956 -0.557991 0.063382
v 0.623956 0.557991 -0.097724
v 0.623956 -0.557991 -0.097724
v 0.623956 0.557991 0.063382
v 0.402333 0.000000 0.063382
v 0.537250 0.347796 0.063382
v 0.537250 -0.347796 0.063382
v 1.123956 -0.557991 0.063382
v 1.123956 0.557991 -0.097724
v 1.123956 -0.557991 -0.097724
v 1.123956 0.557991 0.063382
v 1.345579 0.000000 0.063382
v 1.210662 0.347796 0.063382
v 1.210662 -0.347796 0.063382
v 0.873956 -0.376445 0.143807
v 0.873956 0.000000 0.143807
v 0.509513 0.000000 0.143807
v 0.873956 0.376445 0.143807
v 0.613769 0.268756 0.143807
v 0.613769 -0.268756 0.143807
v 1.238398 0.000000 0.143807
v 1.134142 0.268756 0.143807
v 1.134142 -0.268756 0.143807
vt 0.781602 0.441230
vt 0.761895 0.441230
vt 0.761895 0.460938
vt 0.238281 0.746094
vt 0.263527 0.734925
vt 0.247034 0.725777
vt 0.683065 0.460938
vt 0.683065 0.539767
vt 0.683065 0.539767
vt 0.801310 0.539767
vt 0.801310 0.460938
vt 0.801310 0.460938
vt 0.821017 0.460938
vt 0.811163 0.460938
vt 0.811163 0.539767
vt 0.663358 0.460938
vt 0.653504 0.460938
vt 0.653504 0.539767
vt 0.488281 0.589844
vt 0.463036 0.564671
vt 0.463036 0.621094
vt 0.238281 0.589844
vt 0.263527 0.564671
vt 0.238281 0.558594
vt 0.781602 0.411669
vt 0.761895 0.411669
vt 0.761895 0.421523
vt 0.488281 0.496094
vt 0.463036 0.507263
vt 0.478336 0.516411
vt 0.781602 0.460938
vt 0.781602 0.460938
vt 0.781602 0.441230
vt 0.673212 0.460938
vt 0.673212 0.539767
vt 0.761895 0.431376
vt 0.781602 0.382108
vt 0.761895 0.382108
vt 0.761895 0.401815
vt 0.702773 0.539767
vt 0.702773 0.539767
vt 0.702773 0.559474
vt 0.840724 0.460938
vt 0.830871 0.460938
vt 0.830871 0.539767
vt 0.238281 0.652344
vt 0.263527 0.677517
vt 0.263527 0.621094
vt 0.488281 0.652344
vt 0.463036 0.677517
vt 0.488281 0.683594
vt 0.840724 0.460938
vt 0.840724 0.539767
vt 0.860432 0.539767
vt 0.781602 0.539767
vt 0.801310 0.539767
vt 0.840724 0.539767
vt 0.781602 0.539767
vt 0.781602 0.559474
vt 0.781602 0.559474
vt 0.781602 0.401815
vt 0.781602 0.401815
vt 0.781602 0.303279
vt 0.781602 0.382108
vt 0.781602 0.618596
vt 0.781602 0.618596
vt 0.781602 0.598889
vt 0.683065 0.460938
vt 0.623943 0.460938
vt 0.623943 0.539767
vt 0.643651 0.539767
vt 0.702773 0.382108
vt 0.702773 0.382108
vt 0.702773 0.401815
vt 0.643651 0.539767
vt 0.643651 0.460938
vt 0.643651 0.460938
vt 0.702773 0.460938
vt 0.702773 0.441230
vt 0.702773 0.441230
vt 0.702773 0.303279
vt 0.702773 0.303279
vt 0.702773 0.618596
vt 0.702773 0.598889
vt 0.702773 0.598889
vt 0.702773 0.460938
vt 0.761895 0.303279
vt 0.761895 0.539767
vt 0.251077 0.216688
vt 0.147361 0.216688
vt 0.147361 0.242617
vt 0.121432 0.138902
vt 0.121432 0.138902
vt 0.121432 0.112044
vt 0.277006 0.138902
vt 0.277006 0.112044
vt 0.277006 0.112044
vt 0.302935 0.138902
vt 0.302935 0.112044
vt 0.095503 0.138902
vt 0.095503 0.112044
vt 0.069574 0.112044
vt 0.251077 0.164831
vt 0.147361 0.164831
vt 0.147361 0.190759
vt 0.251077 0.138902
vt 0.147361 0.138902
vt 0.121432 0.112044
vt 0.147361 0.138902
vt 0.147361 0.164831
vt 0.328863 0.112044
vt 0.251077 0.190759
vt 0.354792 0.112044
vt 0.328863 0.112044
vt 0.328863 0.138902
vt 0.277006 0.138902
vt 0.251077 0.112044
vt 0.328863 0.138902
vt 0.251077 0.164831
vt 0.251077 0.112044
vt 0.251077 0.065976
vt 0.251077 0.092834
vt 0.251077 0.092834
vt 0.251077 0.242617
vt 0.251077 0.242617
vt 0.251077 0.216688
vt 0.147361 0.112044
vt 0.069574 0.138902
vt 0.069574 0.112044
vt 0.043645 0.112044
vt 0.069574 0.138902
vt 0.147361 0.092834
vt 0.147361 0.092834
vt 0.147361 0.065976
vt 0.147361 0.216688
vt 0.147361 0.112044
vt 0.742188 0.460938
vt 0.722480 0.460938
vt 0.722480 0.539767
vt 0.742188 0.303279
vt 0.722480 0.303279
vt 0.722480 0.382108
vt 0.742188 0.382108
vt 0.722480 0.401815
vt 0.742188 0.431376
vt 0.722480 0.431376
vt 0.722480 0.441230
vt 0.621270 0.048388
vt 0.621270 0.048388
vt 0.621270 0.058242
vt 0.742188 0.441230
vt 0.742188 0.539767
vt 0.742188 0.401815
vt 0.621270 0.068095
vt 0.621270 0.058242
vt 0.702773 0.411669
vt 0.702773 0.421523
vt 0.722480 0.421523
vt 0.702773 0.431376
vt 0.702773 0.401815
vt 0.722480 0.411669
vt 0.742188 0.411669
vt 0.821017 0.539767
vt 0.601562 0.048388
vt 0.581855 0.048388
vt 0.581855 0.048388
vt 0.601562 0.068095
vt 0.601562 0.068095
vt 0.581855 0.068095
vt 0.781602 0.431376
vt 0.663358 0.539767
vt 0.581855 0.058242
vt 0.601562 0.058242
vt 0.601562 0.048388
vt 0.621270 0.068095
vt 0.581855 0.068095
vt 0.581855 0.058242
vt 0.478336 0.725777
vt 0.471368 0.683594
vt 0.488281 0.746094
vt 0.463036 0.734925
vt 0.425781 0.746094
vt 0.363281 0.746094
vt 0.300781 0.746094
vt 0.238281 0.683594
vt 0.247034 0.687852
vt 0.488281 0.558594
vt 0.471368 0.558594
vt 0.488281 0.621094
vt 0.254545 0.558594
vt 0.238281 0.621094
vt 0.781602 0.421523
vt 0.247034 0.516411
vt 0.238281 0.496094
vt 0.263527 0.507263
vt 0.300781 0.496094
vt 0.363281 0.496094
vt 0.425781 0.496094
vt 0.478336 0.554336
vt 0.702773 0.559474
vt 0.254545 0.683594
vt 0.860432 0.460938
vt 0.781602 0.303279
vt 0.781602 0.598889
vt 0.702773 0.618596
vt 0.354792 0.138902
vt 0.251077 0.138902
vt 0.251077 0.065976
vt 0.043645 0.138902
vt 0.147361 0.065976
vt 0.147361 0.242617
vn 0.0000 0.0000 1.0000
vn -0.0000 0.0000 -1.0000
vn -0.6822 -0.7312 0.0000
vn -0.6544 0.7561 0.0000
vn 0.0000 1.0000 0.0000
vn 0.0000 -1.0000 0.0000
vn 0.6544 0.7561 0.0000
vn 0.6625 0.7490 0.0000
vn -0.6625 0.7490 0.0000
vn 0.6822 -0.7312 0.0000
vn -0.6901 -0.7237 0.0000
vn 0.6901 -0.7237 0.0000
vn -1.0000 0.0000 0.0000
vn 1.0000 0.0000 0.0000
vn -0.1857 -0.4546 -0.8711
vn -0.2367 0.4977 -0.8344
vn 0.0000 0.7722 -0.6354
vn 0.0000 -0.7722 -0.6354
vn 0.0000 0.7851 -0.6193
vn 0.2367 0.4977 -0.8344
vn 0.4140 0.5295 -0.7404
vn -0.4140 0.5295 -0.7404
vn 0.0000 -0.6937 -0.7203
vn 0.1857 -0.4546 -0.8711
vn -0.4224 -0.5011 -0.7553
vn 0.4224 -0.5011 -0.7553
vn -0.4881 0.0000 -0.8728
vn 0.4881 0.0000 -0.8728
vn -0.2364 0.5711 0.7861
vn 0.2364 0.5711 0.7861
vn -0.5846 -0.2268 0.7790
vn 0.5846 -0.2268 0.7790
vn 0.5846 0.2268 0.7790
vn 0.2364 -0.5711 0.7861
vn -0.5846 0.2268 0.7790
vn -0.2364 -0.5711 0.7861
vn -0.2533 -0.4731 -0.8438
vn -0.2128 0.4910 -0.8448
vn 0.2128 0.4910 -0.8448
vn 0.2641 0.4999 -0.8249
vn -0.2641 0.4999 -0.8249
vn 0.2533 -0.4731 -0.8438
vn -0.2304 -0.4627 -0.8561
vn 0.2304 -0.4627 -0.8561
usemtl マテリアル
s off
f 19/1/1 85/2/1 80/3/1
f 2/4/2 59/5/2 60/6/2
f 22/7/3 21/8/3 51/9/3
f 23/10/4 19/11/4 34/12/4
f 14/13/5 103/14/5 101/15/5
f 13/16/6 93/17/6 95/18/6
f 101/19/2 63/20/2 66/21/2
f 102/22/2 64/23/2 21/24/2
f 96/25/1 98/26/1 81/27/1
f 10/28/2 68/29/2 67/30/2
f 12/31/1 35/32/1 34/33/1
f 22/7/6 100/34/6 102/35/6
f 105/36/1 85/2/1 19/1/1
f 6/37/1 79/38/1 82/39/1
f 8/40/2 47/41/2 51/42/2
f 28/43/5 96/44/5 94/45/5
f 95/46/2 72/47/2 65/48/2
f 94/49/2 71/50/2 26/51/2
f 42/52/5 38/53/5 31/54/5
f 35/32/5 36/55/5 40/56/5
f 28/43/7 26/57/7 38/53/7
f 10/58/2 23/59/2 40/60/2
f 6/37/1 28/61/1 42/62/1
f 12/31/8 10/58/8 36/55/8
f 3/63/9 6/37/9 33/64/9
f 3/65/2 31/66/2 38/67/2
f 52/68/6 51/9/6 47/41/6
f 43/69/6 44/70/6 53/71/6
f 5/72/1 43/73/1 46/74/1
f 29/75/10 25/76/10 46/77/10
f 11/78/1 22/79/1 52/80/1
f 5/72/11 2/81/11 44/82/11
f 2/83/2 29/84/2 53/85/2
f 8/40/12 11/78/12 49/86/12
f 3/63/13 83/87/13 79/38/13
f 12/31/14 80/3/14 84/88/14
f 27/89/2 30/90/2 1/91/2
f 20/92/15 50/93/15 61/94/15
f 24/95/16 63/96/16 62/97/16
f 18/98/17 66/99/17 63/96/17
f 15/100/18 65/101/18 72/102/18
f 24/103/2 20/104/2 15/105/2
f 9/106/2 7/107/2 20/104/2
f 15/100/18 20/92/18 64/108/18
f 7/107/2 48/109/2 50/110/2
f 71/111/17 66/99/17 18/98/17
f 18/112/2 15/105/2 30/90/2
f 56/113/19 58/114/19 39/115/19
f 41/116/19 62/97/19 67/117/19
f 58/114/20 71/111/20 27/118/20
f 9/106/2 24/103/2 41/119/2
f 67/117/21 68/120/21 9/106/21
f 4/121/22 55/122/22 56/123/22
f 4/124/2 32/125/2 39/126/2
f 50/93/23 48/109/23 70/127/23
f 54/128/23 57/129/23 60/130/23
f 57/129/24 54/128/24 30/131/24
f 60/132/25 59/133/25 1/134/25
f 1/91/2 30/90/2 54/135/2
f 7/107/26 69/136/26 70/127/26
f 4/121/27 1/134/27 59/133/27
f 7/107/28 9/106/28 68/120/28
f 74/137/14 88/138/14 92/139/14
f 77/140/13 91/141/13 87/142/13
f 73/143/1 87/142/1 90/144/1
f 104/145/1 106/146/1 86/147/1
f 98/148/29 111/149/29 110/150/29
f 76/151/1 86/147/1 88/138/1
f 80/3/14 74/137/14 78/152/14
f 83/87/13 77/140/13 73/143/13
f 79/38/1 73/143/1 75/153/1
f 104/145/1 76/151/1 85/2/1
f 105/154/30 81/155/30 110/150/30
f 85/2/1 76/151/1 74/137/1
f 86/147/1 22/79/1 11/78/1
f 93/156/1 13/157/1 89/158/1
f 106/146/1 100/159/1 22/79/1
f 87/142/1 5/72/1 25/160/1
f 91/141/13 2/81/13 5/72/13
f 88/138/14 11/78/14 8/40/14
f 25/160/1 93/156/1 99/161/1
f 82/39/1 75/153/1 97/162/1
f 90/144/1 99/161/1 97/162/1
f 96/44/5 14/13/5 17/163/5
f 28/61/1 82/39/1 98/26/1
f 93/17/6 25/76/6 29/75/6
f 89/158/1 13/157/1 100/159/1
f 97/164/31 99/165/31 112/166/31
f 104/167/32 113/168/32 115/169/32
f 81/27/1 105/36/1 103/170/1
f 100/34/6 13/16/6 16/171/6
f 103/14/5 19/11/5 23/10/5
f 112/166/1 107/172/1 108/173/1
f 111/149/1 109/174/1 108/173/1
f 108/173/1 113/168/1 114/175/1
f 108/173/1 107/172/1 115/169/1
f 104/167/33 105/154/33 114/175/33
f 106/176/34 115/169/34 107/172/34
f 97/164/35 109/174/35 111/149/35
f 99/165/36 89/177/36 107/172/36
f 19/1/1 80/3/1 12/31/1
f 56/178/2 26/51/2 58/179/2
f 3/180/2 55/181/2 83/182/2
f 83/182/2 55/181/2 77/183/2
f 55/181/2 59/5/2 77/183/2
f 77/183/2 59/5/2 91/184/2
f 91/184/2 59/5/2 2/4/2
f 56/178/2 3/180/2 26/51/2
f 55/181/2 3/180/2 56/178/2
f 29/185/2 60/6/2 57/186/2
f 2/4/2 60/6/2 29/185/2
f 22/7/3 51/9/3 52/68/3
f 23/10/4 34/12/4 40/56/4
f 14/13/5 101/15/5 17/163/5
f 13/16/6 95/18/6 16/171/6
f 63/20/2 23/187/2 62/188/2
f 101/19/2 66/21/2 17/189/2
f 63/20/2 101/19/2 23/187/2
f 61/190/2 21/24/2 64/23/2
f 64/23/2 102/22/2 65/48/2
f 65/48/2 102/22/2 16/191/2
f 96/25/1 81/27/1 14/192/1
f 70/193/2 21/24/2 61/190/2
f 8/194/2 69/195/2 92/196/2
f 92/196/2 69/195/2 78/197/2
f 69/195/2 68/29/2 78/197/2
f 78/197/2 68/29/2 84/198/2
f 84/198/2 68/29/2 10/28/2
f 70/193/2 8/194/2 21/24/2
f 69/195/2 8/194/2 70/193/2
f 23/187/2 67/30/2 62/199/2
f 10/28/2 67/30/2 23/187/2
f 12/31/1 34/33/1 19/1/1
f 22/7/6 102/35/6 21/8/6
f 105/36/1 19/1/1 103/170/1
f 6/37/1 82/39/1 28/61/1
f 8/40/2 51/42/2 21/200/2
f 28/43/5 94/45/5 26/57/5
f 72/47/2 29/185/2 57/201/2
f 95/46/2 65/48/2 16/191/2
f 72/47/2 95/46/2 29/185/2
f 58/179/2 26/51/2 71/50/2
f 71/50/2 94/49/2 66/21/2
f 66/21/2 94/49/2 17/189/2
f 42/52/5 31/54/5 33/202/5
f 35/32/5 40/56/5 34/12/5
f 28/43/7 38/53/7 42/52/7
f 10/58/2 40/60/2 36/55/2
f 6/37/1 42/62/1 33/64/1
f 12/31/8 36/55/8 35/32/8
f 3/63/9 33/64/9 31/203/9
f 3/65/2 38/67/2 26/204/2
f 52/68/6 47/41/6 49/86/6
f 43/69/6 53/71/6 46/77/6
f 5/72/1 46/74/1 25/160/1
f 29/75/10 46/77/10 53/71/10
f 11/78/1 52/80/1 49/86/1
f 5/72/11 44/82/11 43/73/11
f 2/83/2 53/85/2 44/205/2
f 8/40/12 49/86/12 47/41/12
f 3/63/13 79/38/13 6/37/13
f 12/31/14 84/88/14 10/58/14
f 27/89/2 1/91/2 4/124/2
f 20/92/37 61/94/37 64/108/37
f 24/95/38 62/97/38 41/116/38
f 18/98/17 63/96/17 24/95/17
f 15/100/18 72/102/18 30/131/18
f 24/103/2 15/105/2 18/112/2
f 9/106/2 20/104/2 24/103/2
f 15/100/18 64/108/18 65/101/18
f 7/107/2 50/110/2 20/104/2
f 71/111/17 18/98/17 27/118/17
f 18/112/2 30/90/2 27/89/2
f 56/113/19 39/115/19 32/206/19
f 41/116/19 67/117/19 37/207/19
f 58/114/39 27/118/39 39/115/39
f 9/106/2 41/119/2 37/207/2
f 67/117/40 9/106/40 37/207/40
f 4/121/41 56/123/41 32/208/41
f 4/124/2 39/126/2 27/89/2
f 50/93/23 70/127/23 61/94/23
f 54/128/23 60/130/23 45/209/23
f 57/129/42 30/131/42 72/102/42
f 60/132/43 1/134/43 45/210/43
f 1/91/2 54/135/2 45/211/2
f 7/107/44 70/127/44 48/109/44
f 4/121/27 59/133/27 55/122/27
f 7/107/28 68/120/28 69/136/28
f 74/137/14 92/139/14 78/152/14
f 77/140/13 87/142/13 73/143/13
f 73/143/1 90/144/1 75/153/1
f 104/145/1 86/147/1 76/151/1
f 98/148/29 110/150/29 81/155/29
f 76/151/1 88/138/1 74/137/1
f 80/3/14 78/152/14 84/88/14
f 83/87/13 73/143/13 79/38/13
f 79/38/1 75/153/1 82/39/1
f 104/145/1 85/2/1 105/36/1
f 105/154/30 110/150/30 114/175/30
f 85/2/1 74/137/1 80/3/1
f 86/147/1 11/78/1 88/138/1
f 93/156/1 89/158/1 99/161/1
f 106/146/1 22/79/1 86/147/1
f 87/142/1 25/160/1 90/144/1
f 91/141/13 5/72/13 87/142/13
f 88/138/14 8/40/14 92/139/14
f 25/160/1 99/161/1 90/144/1
f 82/39/1 97/162/1 98/26/1
f 90/144/1 97/162/1 75/153/1
f 96/44/5 17/163/5 94/45/5
f 28/61/1 98/26/1 96/25/1
f 93/17/6 29/75/6 95/18/6
f 89/158/1 100/159/1 106/146/1
f 97/164/31 112/166/31 109/174/31
f 104/167/32 115/169/32 106/176/32
f 81/27/1 103/170/1 14/192/1
f 100/34/6 16/171/6 102/35/6
f 103/14/5 23/10/5 101/15/5
f 112/166/1 108/173/1 109/174/1
f 111/149/1 108/173/1 110/150/1
f 108/173/1 114/175/1 110/150/1
f 108/173/1 115/169/1 113/168/1
f 104/167/33 114/175/33 113/168/33
f 106/176/34 107/172/34 89/177/34
f 97/164/35 111/149/35 98/148/35
f 99/165/36 107/172/36 112/166/36
